<mxfile host="app.diagrams.net" modified="2024-03-10T16:13:14.321Z" agent="Mozilla/5.0 (Windows NT 10.0; Win64; x64) AppleWebKit/537.36 (KHTML, like Gecko) Chrome/122.0.0.0 Safari/537.36" etag="ssZYXrxZ1QPTKo9Zgv93" version="24.0.1" type="device">
  <diagram name="Page-1" id="cLxol2tO6gtKD-hCegAc">
    <mxGraphModel dx="955" dy="482" grid="1" gridSize="10" guides="1" tooltips="1" connect="1" arrows="1" fold="1" page="1" pageScale="1" pageWidth="850" pageHeight="1100" math="0" shadow="0">
      <root>
        <mxCell id="0" />
        <mxCell id="1" parent="0" />
        <mxCell id="WDHvQplZBZntBHbFjmJl-1" value="&lt;h3&gt;MindMap Sistem Operasi&lt;br&gt;Dimas Ivanda Fauzi&lt;br&gt;3123521022&lt;/h3&gt;" style="text;strokeColor=none;align=center;fillColor=none;html=1;verticalAlign=middle;whiteSpace=wrap;rounded=0;" vertex="1" parent="1">
          <mxGeometry x="327" y="10" width="197" height="60" as="geometry" />
        </mxCell>
        <mxCell id="WDHvQplZBZntBHbFjmJl-2" value="&lt;h4&gt;Sistem Operasi Bab 1&lt;/h4&gt;" style="text;html=1;align=center;verticalAlign=middle;resizable=0;points=[];autosize=1;strokeColor=none;fillColor=none;" vertex="1" parent="1">
          <mxGeometry x="20" y="70" width="150" height="60" as="geometry" />
        </mxCell>
        <mxCell id="WDHvQplZBZntBHbFjmJl-5" value="" style="edgeStyle=orthogonalEdgeStyle;rounded=0;orthogonalLoop=1;jettySize=auto;html=1;" edge="1" parent="1" source="WDHvQplZBZntBHbFjmJl-3" target="WDHvQplZBZntBHbFjmJl-4">
          <mxGeometry relative="1" as="geometry" />
        </mxCell>
        <mxCell id="WDHvQplZBZntBHbFjmJl-3" value="Perkenalan&lt;div&gt;&lt;br&gt;&lt;/div&gt;&lt;div&gt;Sistem Operasi (OS) adalah kumpulan program atau perangkat lunak yang bertindak sebagai antarmuka antara pengguna komputer dan perangkat keras komputer.&amp;nbsp;&lt;br&gt;&lt;/div&gt;" style="rounded=1;whiteSpace=wrap;html=1;" vertex="1" parent="1">
          <mxGeometry x="285" y="120" width="260" height="140" as="geometry" />
        </mxCell>
        <mxCell id="WDHvQplZBZntBHbFjmJl-7" value="" style="edgeStyle=orthogonalEdgeStyle;rounded=0;orthogonalLoop=1;jettySize=auto;html=1;" edge="1" parent="1" source="WDHvQplZBZntBHbFjmJl-4">
          <mxGeometry relative="1" as="geometry">
            <mxPoint x="415" y="510" as="targetPoint" />
          </mxGeometry>
        </mxCell>
        <mxCell id="WDHvQplZBZntBHbFjmJl-4" value="Arti Sistem Operasi&lt;div&gt;&lt;br&gt;&lt;/div&gt;&lt;div&gt;Sistem operasi adalah program yang setelah pertama kali dimuat ke komputer melalui boot program, mengelola semua program lain di komputer.&amp;nbsp;&lt;/div&gt;" style="rounded=1;whiteSpace=wrap;html=1;" vertex="1" parent="1">
          <mxGeometry x="280" y="310" width="270" height="140" as="geometry" />
        </mxCell>
        <mxCell id="WDHvQplZBZntBHbFjmJl-31" value="" style="edgeStyle=orthogonalEdgeStyle;rounded=0;orthogonalLoop=1;jettySize=auto;html=1;" edge="1" parent="1" source="WDHvQplZBZntBHbFjmJl-8">
          <mxGeometry relative="1" as="geometry">
            <mxPoint x="1275.5454545454545" y="280" as="targetPoint" />
          </mxGeometry>
        </mxCell>
        <mxCell id="WDHvQplZBZntBHbFjmJl-8" value="Pendahuluan&lt;div&gt;&lt;br&gt;&lt;/div&gt;&lt;div&gt;Tujuan utama sistem operasi adalah untuk meningkatkan produktivitas sumber daya pemrosesan, seperti perangkat keras komputer atau pengguna komputer.&lt;/div&gt;" style="rounded=1;whiteSpace=wrap;html=1;" vertex="1" parent="1">
          <mxGeometry x="1140" y="130" width="270" height="99" as="geometry" />
        </mxCell>
        <mxCell id="WDHvQplZBZntBHbFjmJl-11" value="Generasi ke-0&lt;div&gt;&lt;br&gt;&lt;/div&gt;&lt;div&gt;Istilah generasi ke-0 digunakan untuk merujuk pada periode perkembangan komputasi, sebelum produksi komersial&lt;br/&gt;dan penjualan peralatan komputer.&lt;br&gt;&lt;/div&gt;" style="rounded=1;whiteSpace=wrap;html=1;" vertex="1" parent="1">
          <mxGeometry y="730" width="230" height="100" as="geometry" />
        </mxCell>
        <mxCell id="WDHvQplZBZntBHbFjmJl-12" value="Generasi pertama (1951-1956)&lt;div&gt;&lt;br&gt;&lt;/div&gt;&lt;div&gt;Generasi pertama ditandai dengan tabung vakum sebagai teknologi komponen aktifnya.&lt;/div&gt;" style="rounded=1;whiteSpace=wrap;html=1;" vertex="1" parent="1">
          <mxGeometry x="130" y="880" width="210" height="100" as="geometry" />
        </mxCell>
        <mxCell id="WDHvQplZBZntBHbFjmJl-18" style="edgeStyle=orthogonalEdgeStyle;rounded=0;orthogonalLoop=1;jettySize=auto;html=1;exitX=0;exitY=1;exitDx=0;exitDy=0;entryX=0.5;entryY=0;entryDx=0;entryDy=0;" edge="1" parent="1">
          <mxGeometry relative="1" as="geometry">
            <mxPoint x="225" y="620" as="sourcePoint" />
            <mxPoint x="130" y="730" as="targetPoint" />
            <Array as="points">
              <mxPoint x="195" y="620" />
              <mxPoint x="195" y="670" />
              <mxPoint x="135" y="670" />
              <mxPoint x="135" y="710" />
              <mxPoint x="130" y="710" />
            </Array>
          </mxGeometry>
        </mxCell>
        <mxCell id="WDHvQplZBZntBHbFjmJl-19" style="edgeStyle=orthogonalEdgeStyle;rounded=0;orthogonalLoop=1;jettySize=auto;html=1;exitX=0.25;exitY=1;exitDx=0;exitDy=0;" edge="1" parent="1" source="WDHvQplZBZntBHbFjmJl-17">
          <mxGeometry relative="1" as="geometry">
            <mxPoint x="240" y="880" as="targetPoint" />
            <Array as="points">
              <mxPoint x="240" y="620" />
              <mxPoint x="240" y="880" />
            </Array>
          </mxGeometry>
        </mxCell>
        <mxCell id="WDHvQplZBZntBHbFjmJl-21" style="edgeStyle=orthogonalEdgeStyle;rounded=0;orthogonalLoop=1;jettySize=auto;html=1;exitX=0.5;exitY=1;exitDx=0;exitDy=0;entryX=0.5;entryY=0;entryDx=0;entryDy=0;" edge="1" parent="1" source="WDHvQplZBZntBHbFjmJl-17" target="WDHvQplZBZntBHbFjmJl-20">
          <mxGeometry relative="1" as="geometry" />
        </mxCell>
        <mxCell id="WDHvQplZBZntBHbFjmJl-24" style="edgeStyle=orthogonalEdgeStyle;rounded=0;orthogonalLoop=1;jettySize=auto;html=1;exitX=0.75;exitY=1;exitDx=0;exitDy=0;entryX=0.5;entryY=0;entryDx=0;entryDy=0;" edge="1" parent="1" source="WDHvQplZBZntBHbFjmJl-17" target="WDHvQplZBZntBHbFjmJl-23">
          <mxGeometry relative="1" as="geometry">
            <Array as="points">
              <mxPoint x="530" y="620" />
              <mxPoint x="530" y="740" />
              <mxPoint x="575" y="740" />
            </Array>
          </mxGeometry>
        </mxCell>
        <mxCell id="WDHvQplZBZntBHbFjmJl-27" style="edgeStyle=orthogonalEdgeStyle;rounded=0;orthogonalLoop=1;jettySize=auto;html=1;exitX=1;exitY=1;exitDx=0;exitDy=0;entryX=0.5;entryY=0;entryDx=0;entryDy=0;" edge="1" parent="1" source="WDHvQplZBZntBHbFjmJl-17" target="WDHvQplZBZntBHbFjmJl-26">
          <mxGeometry relative="1" as="geometry" />
        </mxCell>
        <mxCell id="WDHvQplZBZntBHbFjmJl-17" value="Sejarah Sistem Operasi&lt;div&gt;&lt;br&gt;&lt;/div&gt;&lt;div&gt;Komputer awal tidak memiliki sistem operasi apa pun. Pengguna hanya dapat menggunakan mesin tersebut dan akan tiba dengan membawa program dan data. Program akan dimuat ke dalam mesin, dan mesin akan diatur untuk bekerja sampai program tersebut selesai atau mogok.&amp;nbsp;&lt;/div&gt;" style="rounded=0;whiteSpace=wrap;html=1;" vertex="1" parent="1">
          <mxGeometry x="217.5" y="510" width="395" height="110" as="geometry" />
        </mxCell>
        <mxCell id="WDHvQplZBZntBHbFjmJl-20" value="Generasi kedua (1956-1964)&lt;div&gt;&lt;br&gt;&lt;/div&gt;&lt;div&gt;Perangkat keras komputer generasi kedua ditandai dengan penggunaan transistor yang menggantikan tabung vakum sebagai teknologi komponen perangkat keras.&lt;br&gt;&lt;/div&gt;" style="rounded=1;whiteSpace=wrap;html=1;" vertex="1" parent="1">
          <mxGeometry x="270" y="730" width="240" height="100" as="geometry" />
        </mxCell>
        <mxCell id="WDHvQplZBZntBHbFjmJl-23" value="Generasi Ketiga (1964-1979)&lt;div&gt;&lt;br&gt;&lt;/div&gt;&lt;div&gt;Generasi ketiga ditandai dengan penggunaan perangkat keras Sirkuit Terpadu (IC), yang menghasilkan keuntungan signifikan baik dalam kecepatan maupun ekonomi.&lt;/div&gt;" style="rounded=1;whiteSpace=wrap;html=1;" vertex="1" parent="1">
          <mxGeometry x="450" y="860" width="250" height="120" as="geometry" />
        </mxCell>
        <mxCell id="WDHvQplZBZntBHbFjmJl-26" value="Generasi keempat (1979-Sekarang)&lt;div&gt;&lt;br&gt;&lt;/div&gt;&lt;div&gt;Kemunculan generasi keempat ditandai dengan munculnya microprosessor dan komputer pribadi/PC.&lt;/div&gt;" style="rounded=1;whiteSpace=wrap;html=1;" vertex="1" parent="1">
          <mxGeometry x="605" y="720" width="230" height="100" as="geometry" />
        </mxCell>
        <mxCell id="WDHvQplZBZntBHbFjmJl-28" value="&lt;h4&gt;Sistem Operasi Bab 2&lt;/h4&gt;" style="text;html=1;align=center;verticalAlign=middle;resizable=0;points=[];autosize=1;strokeColor=none;fillColor=none;" vertex="1" parent="1">
          <mxGeometry x="850" y="70" width="150" height="60" as="geometry" />
        </mxCell>
        <mxCell id="WDHvQplZBZntBHbFjmJl-29" value="&lt;h3&gt;MindMap Sistem Operasi&lt;br&gt;Dimas Ivanda Fauzi&lt;br&gt;3123521022&lt;/h3&gt;" style="text;strokeColor=none;align=center;fillColor=none;html=1;verticalAlign=middle;whiteSpace=wrap;rounded=0;" vertex="1" parent="1">
          <mxGeometry x="1177" y="10" width="197" height="60" as="geometry" />
        </mxCell>
        <mxCell id="WDHvQplZBZntBHbFjmJl-36" style="edgeStyle=orthogonalEdgeStyle;rounded=0;orthogonalLoop=1;jettySize=auto;html=1;exitX=0;exitY=0.75;exitDx=0;exitDy=0;entryX=1;entryY=0.5;entryDx=0;entryDy=0;" edge="1" parent="1" source="WDHvQplZBZntBHbFjmJl-32" target="WDHvQplZBZntBHbFjmJl-33">
          <mxGeometry relative="1" as="geometry">
            <Array as="points">
              <mxPoint x="1145" y="310" />
              <mxPoint x="1145" y="410" />
            </Array>
          </mxGeometry>
        </mxCell>
        <mxCell id="WDHvQplZBZntBHbFjmJl-37" style="edgeStyle=orthogonalEdgeStyle;rounded=0;orthogonalLoop=1;jettySize=auto;html=1;exitX=0;exitY=1;exitDx=0;exitDy=0;entryX=1;entryY=0.5;entryDx=0;entryDy=0;" edge="1" parent="1" source="WDHvQplZBZntBHbFjmJl-32" target="WDHvQplZBZntBHbFjmJl-34">
          <mxGeometry relative="1" as="geometry">
            <Array as="points">
              <mxPoint x="1170" y="320" />
              <mxPoint x="1170" y="540" />
            </Array>
          </mxGeometry>
        </mxCell>
        <mxCell id="WDHvQplZBZntBHbFjmJl-39" style="edgeStyle=orthogonalEdgeStyle;rounded=0;orthogonalLoop=1;jettySize=auto;html=1;exitX=0.25;exitY=1;exitDx=0;exitDy=0;entryX=1;entryY=0.5;entryDx=0;entryDy=0;" edge="1" parent="1" source="WDHvQplZBZntBHbFjmJl-32" target="WDHvQplZBZntBHbFjmJl-38">
          <mxGeometry relative="1" as="geometry">
            <Array as="points">
              <mxPoint x="1190" y="320" />
              <mxPoint x="1190" y="665" />
            </Array>
          </mxGeometry>
        </mxCell>
        <mxCell id="WDHvQplZBZntBHbFjmJl-41" style="edgeStyle=orthogonalEdgeStyle;rounded=0;orthogonalLoop=1;jettySize=auto;html=1;exitX=0.25;exitY=1;exitDx=0;exitDy=0;entryX=1;entryY=0.5;entryDx=0;entryDy=0;" edge="1" parent="1" source="WDHvQplZBZntBHbFjmJl-32" target="WDHvQplZBZntBHbFjmJl-40">
          <mxGeometry relative="1" as="geometry" />
        </mxCell>
        <mxCell id="WDHvQplZBZntBHbFjmJl-44" style="edgeStyle=orthogonalEdgeStyle;rounded=0;orthogonalLoop=1;jettySize=auto;html=1;exitX=1;exitY=0.75;exitDx=0;exitDy=0;entryX=0;entryY=0.5;entryDx=0;entryDy=0;" edge="1" parent="1" source="WDHvQplZBZntBHbFjmJl-32" target="WDHvQplZBZntBHbFjmJl-42">
          <mxGeometry relative="1" as="geometry">
            <Array as="points">
              <mxPoint x="1390" y="310" />
              <mxPoint x="1390" y="410" />
            </Array>
          </mxGeometry>
        </mxCell>
        <mxCell id="WDHvQplZBZntBHbFjmJl-48" style="edgeStyle=orthogonalEdgeStyle;rounded=0;orthogonalLoop=1;jettySize=auto;html=1;exitX=0.75;exitY=1;exitDx=0;exitDy=0;entryX=0;entryY=0.5;entryDx=0;entryDy=0;" edge="1" parent="1" source="WDHvQplZBZntBHbFjmJl-32" target="WDHvQplZBZntBHbFjmJl-46">
          <mxGeometry relative="1" as="geometry">
            <Array as="points">
              <mxPoint x="1370" y="320" />
              <mxPoint x="1370" y="545" />
            </Array>
          </mxGeometry>
        </mxCell>
        <mxCell id="WDHvQplZBZntBHbFjmJl-50" style="edgeStyle=orthogonalEdgeStyle;rounded=0;orthogonalLoop=1;jettySize=auto;html=1;exitX=0.75;exitY=1;exitDx=0;exitDy=0;entryX=0;entryY=0.5;entryDx=0;entryDy=0;" edge="1" parent="1" source="WDHvQplZBZntBHbFjmJl-32" target="WDHvQplZBZntBHbFjmJl-49">
          <mxGeometry relative="1" as="geometry">
            <Array as="points">
              <mxPoint x="1350" y="320" />
              <mxPoint x="1350" y="690" />
            </Array>
          </mxGeometry>
        </mxCell>
        <mxCell id="WDHvQplZBZntBHbFjmJl-52" style="edgeStyle=orthogonalEdgeStyle;rounded=0;orthogonalLoop=1;jettySize=auto;html=1;exitX=0.75;exitY=1;exitDx=0;exitDy=0;entryX=0;entryY=0.5;entryDx=0;entryDy=0;" edge="1" parent="1" source="WDHvQplZBZntBHbFjmJl-32" target="WDHvQplZBZntBHbFjmJl-51">
          <mxGeometry relative="1" as="geometry">
            <Array as="points">
              <mxPoint x="1330" y="320" />
              <mxPoint x="1330" y="815" />
            </Array>
          </mxGeometry>
        </mxCell>
        <mxCell id="WDHvQplZBZntBHbFjmJl-32" value="Operasi dan Fungsi Sistem Operasi" style="rounded=0;whiteSpace=wrap;html=1;" vertex="1" parent="1">
          <mxGeometry x="1162.75" y="280" width="224.5" height="40" as="geometry" />
        </mxCell>
        <mxCell id="WDHvQplZBZntBHbFjmJl-33" value="Manajemen Proses&lt;div&gt;&lt;br&gt;&lt;/div&gt;&lt;div&gt;1. Pembuatan dan penghapusan proses pengguna dan sistem&lt;/div&gt;&lt;div&gt;2. Penangguhan dan dimulainya kembali proses&lt;/div&gt;&lt;div&gt;3. Penyediaan mekanisme untuk Sinkronisasi proses&lt;/div&gt;" style="rounded=1;whiteSpace=wrap;html=1;" vertex="1" parent="1">
          <mxGeometry x="865" y="360" width="260" height="100" as="geometry" />
        </mxCell>
        <mxCell id="WDHvQplZBZntBHbFjmJl-34" value="Manajemen Memori&lt;div&gt;&lt;br&gt;&lt;/div&gt;&lt;div&gt;1. Melacak bagian memori mana yang sedang digunakan oleh siapa&lt;/div&gt;&lt;div&gt;2. Tentukan proses mana yang akan dimuat ke dalam memori saat ruang memori tersedia&lt;/div&gt;&lt;div&gt;3. Mengalokasikan dan mengalokasikan kembali ruang memori sesuai kebutuhan&lt;/div&gt;" style="rounded=1;whiteSpace=wrap;html=1;" vertex="1" parent="1">
          <mxGeometry x="860" y="480" width="290" height="120" as="geometry" />
        </mxCell>
        <mxCell id="WDHvQplZBZntBHbFjmJl-38" value="Manajemen Penyimpanan Disk&lt;div&gt;&lt;br&gt;&lt;/div&gt;&lt;div&gt;1. Manajemen ruang bebas&lt;/div&gt;&lt;div&gt;2. Alokasi penyimpanan&lt;/div&gt;&lt;div&gt;3. Penjadwalan Disk&lt;/div&gt;" style="rounded=1;whiteSpace=wrap;html=1;" vertex="1" parent="1">
          <mxGeometry x="875" y="620" width="240" height="90" as="geometry" />
        </mxCell>
        <mxCell id="WDHvQplZBZntBHbFjmJl-40" value="Manajemen I/O&lt;div&gt;&lt;br&gt;&lt;/div&gt;&lt;div&gt;1. Sistem cache penyangga&lt;/div&gt;&lt;div&gt;2. Untuk mengaktifkan kode driver perangkat umum&lt;/div&gt;&lt;div&gt;3. Untuk menjalankan perangkat lunak driver untuk perangkat keras tertentu sesuai kebutuhan&lt;/div&gt;" style="rounded=1;whiteSpace=wrap;html=1;" vertex="1" parent="1">
          <mxGeometry x="867.5" y="740" width="275" height="110" as="geometry" />
        </mxCell>
        <mxCell id="WDHvQplZBZntBHbFjmJl-42" value="Manajemen File&lt;div&gt;&lt;br&gt;&lt;/div&gt;&lt;div&gt;1. Pembuatan dan penghapusan file&lt;/div&gt;&lt;div&gt;2. Pembuatan dan penghapusan direktori&lt;/div&gt;&lt;div&gt;3. Pemetaan file ke dalam penyimpanan disk&lt;/div&gt;&lt;div&gt;4. Perlindungan dan keamanan file&lt;/div&gt;" style="rounded=1;whiteSpace=wrap;html=1;" vertex="1" parent="1">
          <mxGeometry x="1410" y="355" width="275" height="110" as="geometry" />
        </mxCell>
        <mxCell id="WDHvQplZBZntBHbFjmJl-46" value="Perlindungan&lt;div&gt;&lt;br&gt;&lt;/div&gt;&lt;div&gt;Perlindungan mengacu pada mekanisme untuk mengontrol akses program, proses, atau pengguna ke sumber daya yang telah ditentukan oleh kontrol komputer yang akan diberlakukan bersama dengan beberapa cara penegakkan.&lt;/div&gt;" style="rounded=1;whiteSpace=wrap;html=1;" vertex="1" parent="1">
          <mxGeometry x="1422.5" y="480" width="250" height="130" as="geometry" />
        </mxCell>
        <mxCell id="WDHvQplZBZntBHbFjmJl-49" value="Jaringan&lt;div&gt;&lt;br&gt;&lt;/div&gt;&lt;div&gt;Prosesor dalam sistem terhubung melalui jaringan komunikasi yang dapat dikonfigurasikan dengan berbagai cara.&lt;/div&gt;" style="rounded=1;whiteSpace=wrap;html=1;" vertex="1" parent="1">
          <mxGeometry x="1410" y="640" width="272.5" height="100" as="geometry" />
        </mxCell>
        <mxCell id="WDHvQplZBZntBHbFjmJl-51" value="Interpretasi Perintah&lt;div&gt;&lt;br&gt;&lt;/div&gt;&lt;div&gt;Salah satu komponen terpenting dari sistem operasi adalah Interpretasi Perintah. Interpretasi Perintah adalah antarmuka utama antara pengguna dan seluruh sistem&lt;/div&gt;" style="rounded=1;whiteSpace=wrap;html=1;" vertex="1" parent="1">
          <mxGeometry x="1410" y="760" width="270" height="110" as="geometry" />
        </mxCell>
        <mxCell id="WDHvQplZBZntBHbFjmJl-59" style="edgeStyle=orthogonalEdgeStyle;rounded=0;orthogonalLoop=1;jettySize=auto;html=1;exitX=0;exitY=1;exitDx=0;exitDy=0;entryX=0.5;entryY=0;entryDx=0;entryDy=0;" edge="1" parent="1" source="WDHvQplZBZntBHbFjmJl-54" target="WDHvQplZBZntBHbFjmJl-56">
          <mxGeometry relative="1" as="geometry">
            <Array as="points">
              <mxPoint x="1173" y="960" />
              <mxPoint x="985" y="960" />
            </Array>
          </mxGeometry>
        </mxCell>
        <mxCell id="WDHvQplZBZntBHbFjmJl-60" value="" style="edgeStyle=orthogonalEdgeStyle;rounded=0;orthogonalLoop=1;jettySize=auto;html=1;" edge="1" parent="1" source="WDHvQplZBZntBHbFjmJl-54" target="WDHvQplZBZntBHbFjmJl-57">
          <mxGeometry relative="1" as="geometry" />
        </mxCell>
        <mxCell id="WDHvQplZBZntBHbFjmJl-61" style="edgeStyle=orthogonalEdgeStyle;rounded=0;orthogonalLoop=1;jettySize=auto;html=1;exitX=1;exitY=0.75;exitDx=0;exitDy=0;entryX=0.5;entryY=0;entryDx=0;entryDy=0;" edge="1" parent="1" source="WDHvQplZBZntBHbFjmJl-54" target="WDHvQplZBZntBHbFjmJl-58">
          <mxGeometry relative="1" as="geometry">
            <Array as="points">
              <mxPoint x="1378" y="950" />
              <mxPoint x="1550" y="950" />
            </Array>
          </mxGeometry>
        </mxCell>
        <mxCell id="WDHvQplZBZntBHbFjmJl-54" value="Jenis-jenis Sistem Operasi" style="rounded=0;whiteSpace=wrap;html=1;" vertex="1" parent="1">
          <mxGeometry x="1173" y="910" width="205" height="40" as="geometry" />
        </mxCell>
        <mxCell id="WDHvQplZBZntBHbFjmJl-56" value="Sistem Operasi Pemrosesan Batch&lt;div&gt;&lt;br&gt;&lt;/div&gt;&lt;div&gt;Pengguna mengirimkan pekerjaan ke tempat pusat dimana pekerjaan ini dikumpulkan menjadi satu batch, dan kemudian ditempatkan pada antrean input di komputer tempat pekerjaan tersebut akan dijalankan.&lt;/div&gt;" style="rounded=1;whiteSpace=wrap;html=1;" vertex="1" parent="1">
          <mxGeometry x="860" y="980" width="250" height="110" as="geometry" />
        </mxCell>
        <mxCell id="WDHvQplZBZntBHbFjmJl-57" value="Pembagian Waktu&lt;div&gt;&lt;br&gt;&lt;/div&gt;&lt;div&gt;Komputer menyediakan layanan komputasi untuk beberapa atau banyak pengguna secara bersamaan secara online.&lt;/div&gt;" style="rounded=1;whiteSpace=wrap;html=1;" vertex="1" parent="1">
          <mxGeometry x="1158.5" y="1000" width="234" height="90" as="geometry" />
        </mxCell>
        <mxCell id="WDHvQplZBZntBHbFjmJl-58" value="Sistem Operasi Real-Time&lt;div&gt;&lt;br&gt;&lt;/div&gt;&lt;div&gt;Dirancang untuk melayani aplikasi-aplikasi dimana waktu respons sangat penting untuk mencegah kesalahan, kesalahan penyajian, atau bahkan bencana.&lt;/div&gt;" style="rounded=1;whiteSpace=wrap;html=1;" vertex="1" parent="1">
          <mxGeometry x="1427.5" y="980" width="245" height="110" as="geometry" />
        </mxCell>
        <mxCell id="WDHvQplZBZntBHbFjmJl-67" style="edgeStyle=orthogonalEdgeStyle;rounded=0;orthogonalLoop=1;jettySize=auto;html=1;exitX=0;exitY=1;exitDx=0;exitDy=0;entryX=1;entryY=0.5;entryDx=0;entryDy=0;" edge="1" parent="1" source="WDHvQplZBZntBHbFjmJl-62" target="WDHvQplZBZntBHbFjmJl-63">
          <mxGeometry relative="1" as="geometry" />
        </mxCell>
        <mxCell id="WDHvQplZBZntBHbFjmJl-68" style="edgeStyle=orthogonalEdgeStyle;rounded=0;orthogonalLoop=1;jettySize=auto;html=1;exitX=0.25;exitY=1;exitDx=0;exitDy=0;entryX=1;entryY=0.5;entryDx=0;entryDy=0;" edge="1" parent="1" source="WDHvQplZBZntBHbFjmJl-62" target="WDHvQplZBZntBHbFjmJl-64">
          <mxGeometry relative="1" as="geometry" />
        </mxCell>
        <mxCell id="WDHvQplZBZntBHbFjmJl-69" style="edgeStyle=orthogonalEdgeStyle;rounded=0;orthogonalLoop=1;jettySize=auto;html=1;exitX=0.75;exitY=1;exitDx=0;exitDy=0;entryX=0;entryY=0.5;entryDx=0;entryDy=0;" edge="1" parent="1" source="WDHvQplZBZntBHbFjmJl-62" target="WDHvQplZBZntBHbFjmJl-66">
          <mxGeometry relative="1" as="geometry" />
        </mxCell>
        <mxCell id="WDHvQplZBZntBHbFjmJl-70" style="edgeStyle=orthogonalEdgeStyle;rounded=0;orthogonalLoop=1;jettySize=auto;html=1;exitX=1;exitY=1;exitDx=0;exitDy=0;entryX=0;entryY=0.5;entryDx=0;entryDy=0;" edge="1" parent="1" source="WDHvQplZBZntBHbFjmJl-62" target="WDHvQplZBZntBHbFjmJl-65">
          <mxGeometry relative="1" as="geometry" />
        </mxCell>
        <mxCell id="WDHvQplZBZntBHbFjmJl-62" value="Contoh Sistem Operasi" style="rounded=0;whiteSpace=wrap;html=1;" vertex="1" parent="1">
          <mxGeometry x="1180" y="1180" width="190" height="40" as="geometry" />
        </mxCell>
        <mxCell id="WDHvQplZBZntBHbFjmJl-63" value="Disk Operating System (DOS)&lt;div&gt;&lt;br&gt;&lt;/div&gt;&lt;div&gt;Adalah sistem operasi pertama yang diinstal secara luas untuk komputer pribadi. DOS merupakan program kontrol utama yang secara otomatis dijalankan ketika anda menyalakan Komputer pribadi Anda.&lt;/div&gt;" style="rounded=1;whiteSpace=wrap;html=1;" vertex="1" parent="1">
          <mxGeometry x="867.5" y="1260" width="265" height="110" as="geometry" />
        </mxCell>
        <mxCell id="WDHvQplZBZntBHbFjmJl-64" value="UNIX&lt;div&gt;&lt;br&gt;&lt;/div&gt;&lt;div&gt;Lingkungan UNIX dan model program klien/server merupakan elemen penting dalam pengembangan internet dan pembentukan kembali komputasi yang berpusat pada jaringan dan bukan pada komputer individual&lt;/div&gt;" style="rounded=1;whiteSpace=wrap;html=1;" vertex="1" parent="1">
          <mxGeometry x="872.5" y="1410" width="265" height="110" as="geometry" />
        </mxCell>
        <mxCell id="WDHvQplZBZntBHbFjmJl-65" value="Windows&lt;div&gt;&lt;br&gt;&lt;/div&gt;&lt;div&gt;Windows adalah sistem operasi komputer pribadi dari Microsoft yang bersama dengan beberapa aplikasi bisnis yang umum digunakan seperti Microsoft Word dan Excel.&lt;/div&gt;" style="rounded=1;whiteSpace=wrap;html=1;" vertex="1" parent="1">
          <mxGeometry x="1392.5" y="1260" width="265" height="110" as="geometry" />
        </mxCell>
        <mxCell id="WDHvQplZBZntBHbFjmJl-66" value="Macintosh&lt;div&gt;&lt;br&gt;&lt;/div&gt;&lt;div&gt;Macintosh adalah komputer pribadi pertama yang dijual secara luas dengan Graphical User Interface. Dirancang untuk menyediakan antarmuka yang alami, mudah dimengerti secara intuitif, dan secara umum &quot;ramah pengguna&quot;&lt;/div&gt;" style="rounded=1;whiteSpace=wrap;html=1;" vertex="1" parent="1">
          <mxGeometry x="1392.5" y="1410" width="265" height="110" as="geometry" />
        </mxCell>
      </root>
    </mxGraphModel>
  </diagram>
</mxfile>
